<svg width="165" height="71" viewBox="0 0 165 71" fill="none" xmlns="http://www.w3.org/2000/svg">
<path d="M4.90625 66.2422C4.14583 66.2422 3.46094 66.1068 2.85156 65.8359C2.2474 65.5599 1.76823 65.1536 1.41406 64.6172C1.0651 64.0807 0.890625 63.4193 0.890625 62.6328C0.890625 61.9557 1.01563 61.3958 1.26563 60.9531C1.51563 60.5104 1.85677 60.1562 2.28906 59.8906C2.72135 59.625 3.20833 59.4245 3.75 59.2891C4.29688 59.1484 4.86198 59.0469 5.44531 58.9844C6.14844 58.9115 6.71875 58.8464 7.15625 58.7891C7.59375 58.7266 7.91146 58.6328 8.10938 58.5078C8.3125 58.3776 8.41406 58.1771 8.41406 57.9062V57.8594C8.41406 57.2708 8.23958 56.8151 7.89063 56.4922C7.54167 56.1693 7.03906 56.0078 6.38281 56.0078C5.6901 56.0078 5.14063 56.1589 4.73438 56.4609C4.33333 56.763 4.0625 57.1198 3.92188 57.5312L1.28125 57.1562C1.48958 56.4271 1.83333 55.8177 2.3125 55.3281C2.79167 54.8333 3.3776 54.4635 4.07031 54.2187C4.76302 53.9688 5.52865 53.8438 6.36719 53.8438C6.94531 53.8438 7.52083 53.9115 8.09375 54.0469C8.66667 54.1823 9.1901 54.4062 9.66406 54.7187C10.138 55.026 10.5182 55.4453 10.8047 55.9766C11.0964 56.5078 11.2422 57.1719 11.2422 57.9687V66H8.52344V64.3516H8.42969C8.25781 64.6849 8.01563 64.9974 7.70313 65.2891C7.39583 65.5755 7.00781 65.8073 6.53906 65.9844C6.07552 66.1563 5.53125 66.2422 4.90625 66.2422ZM5.64063 64.1641C6.20833 64.1641 6.70052 64.0521 7.11719 63.8281C7.53385 63.599 7.85417 63.2969 8.07812 62.9219C8.30729 62.5469 8.42188 62.138 8.42188 61.6953V60.2812C8.33333 60.3542 8.18229 60.4219 7.96875 60.4844C7.76042 60.5469 7.52604 60.6016 7.26563 60.6484C7.00521 60.6953 6.7474 60.737 6.49219 60.7734C6.23698 60.8099 6.01563 60.8411 5.82813 60.8672C5.40625 60.9245 5.02865 61.0182 4.69531 61.1484C4.36198 61.2786 4.09896 61.4609 3.90625 61.6953C3.71354 61.9245 3.61719 62.2214 3.61719 62.5859C3.61719 63.1068 3.80729 63.5 4.1875 63.7656C4.56771 64.0312 5.05208 64.1641 5.64063 64.1641ZM14.0859 66V54H16.8281V56H16.9531C17.1719 55.3073 17.5469 54.7734 18.0781 54.3984C18.6146 54.0182 19.2266 53.8281 19.9141 53.8281C20.0703 53.8281 20.2448 53.8359 20.4375 53.8516C20.6354 53.862 20.7995 53.8802 20.9297 53.9062V56.5078C20.8099 56.4661 20.6198 56.4297 20.3594 56.3984C20.1042 56.362 19.8568 56.3437 19.6172 56.3437C19.1016 56.3437 18.638 56.4557 18.2266 56.6797C17.8203 56.8984 17.5 57.2031 17.2656 57.5937C17.0313 57.9844 16.9141 58.4349 16.9141 58.9453V66H14.0859ZM33.5 66.2344C32.3021 66.2344 31.2734 65.9714 30.4141 65.4453C29.5599 64.9193 28.901 64.1927 28.4375 63.2656C27.9792 62.3333 27.75 61.2604 27.75 60.0469C27.75 58.8281 27.9844 57.7526 28.4531 56.8203C28.9219 55.8828 29.5833 55.1536 30.4375 54.6328C31.2969 54.1068 32.3125 53.8438 33.4844 53.8438C34.4583 53.8438 35.3203 54.0234 36.0703 54.3828C36.8255 54.737 37.4271 55.2396 37.875 55.8906C38.3229 56.5365 38.5781 57.2917 38.6406 58.1562H35.9375C35.8281 57.5781 35.5677 57.0964 35.1563 56.7109C34.75 56.3203 34.2057 56.125 33.5234 56.125C32.9453 56.125 32.4375 56.2812 32 56.5937C31.5625 56.901 31.2214 57.3437 30.9766 57.9219C30.737 58.5 30.6172 59.1927 30.6172 60C30.6172 60.8177 30.737 61.5208 30.9766 62.1094C31.2161 62.6927 31.5521 63.1432 31.9844 63.4609C32.4219 63.7734 32.9349 63.9297 33.5234 63.9297C33.9401 63.9297 34.3125 63.8516 34.6406 63.6953C34.974 63.5339 35.2526 63.3021 35.4766 63C35.7005 62.6979 35.8542 62.3307 35.9375 61.8984H38.6406C38.5729 62.7474 38.3229 63.5 37.8906 64.1562C37.4583 64.8073 36.8698 65.3177 36.125 65.6875C35.3802 66.0521 34.5052 66.2344 33.5 66.2344ZM46.1973 66.2344C45.0254 66.2344 44.0098 65.9766 43.1504 65.4609C42.291 64.9453 41.6243 64.224 41.1504 63.2969C40.6816 62.3698 40.4473 61.2865 40.4473 60.0469C40.4473 58.8073 40.6816 57.7214 41.1504 56.7891C41.6243 55.8568 42.291 55.1328 43.1504 54.6172C44.0098 54.1016 45.0254 53.8438 46.1973 53.8438C47.3691 53.8438 48.3848 54.1016 49.2441 54.6172C50.1035 55.1328 50.7676 55.8568 51.2363 56.7891C51.7103 57.7214 51.9473 58.8073 51.9473 60.0469C51.9473 61.2865 51.7103 62.3698 51.2363 63.2969C50.7676 64.224 50.1035 64.9453 49.2441 65.4609C48.3848 65.9766 47.3691 66.2344 46.1973 66.2344ZM46.2129 63.9687C46.8483 63.9687 47.3796 63.7943 47.8066 63.4453C48.2337 63.0911 48.5514 62.6172 48.7598 62.0234C48.9733 61.4297 49.0801 60.7682 49.0801 60.0391C49.0801 59.3047 48.9733 58.6406 48.7598 58.0469C48.5514 57.4479 48.2337 56.9714 47.8066 56.6172C47.3796 56.263 46.8483 56.0859 46.2129 56.0859C45.5618 56.0859 45.0202 56.263 44.5879 56.6172C44.1608 56.9714 43.8405 57.4479 43.627 58.0469C43.4186 58.6406 43.3145 59.3047 43.3145 60.0391C43.3145 60.7682 43.4186 61.4297 43.627 62.0234C43.8405 62.6172 44.1608 63.0911 44.5879 63.4453C45.0202 63.7943 45.5618 63.9687 46.2129 63.9687ZM57.1758 58.9687V66H54.3477V54H57.0508V56.0391H57.1914C57.4674 55.3672 57.9076 54.8333 58.5117 54.4375C59.1211 54.0417 59.8737 53.8438 60.7695 53.8438C61.5977 53.8438 62.319 54.0208 62.9336 54.375C63.5534 54.7292 64.0326 55.2422 64.3711 55.9141C64.7148 56.5859 64.8841 57.401 64.8789 58.3594V66H62.0508V58.7969C62.0508 57.9948 61.8424 57.3672 61.4258 56.9141C61.0143 56.4609 60.444 56.2344 59.7148 56.2344C59.2201 56.2344 58.7799 56.3437 58.3945 56.5625C58.0143 56.776 57.7148 57.0859 57.4961 57.4922C57.2826 57.8984 57.1758 58.3906 57.1758 58.9687ZM72.207 66.2109C71.2643 66.2109 70.4206 65.9688 69.6758 65.4844C68.931 65 68.3424 64.2969 67.9102 63.375C67.4779 62.4531 67.2617 61.3333 67.2617 60.0156C67.2617 58.6823 67.4805 57.5573 67.918 56.6406C68.3607 55.7187 68.957 55.0234 69.707 54.5547C70.457 54.0807 71.293 53.8438 72.2148 53.8438C72.918 53.8438 73.4961 53.9635 73.9492 54.2031C74.4023 54.4375 74.7617 54.7214 75.0273 55.0547C75.293 55.3828 75.4987 55.6927 75.6445 55.9844H75.7617V50H78.5977V66H75.8164V64.1094H75.6445C75.4987 64.401 75.2878 64.7109 75.0117 65.0391C74.7357 65.362 74.3711 65.638 73.918 65.8672C73.4648 66.0964 72.8945 66.2109 72.207 66.2109ZM72.9961 63.8906C73.5951 63.8906 74.1055 63.7292 74.5273 63.4062C74.9492 63.0781 75.2695 62.6224 75.4883 62.0391C75.707 61.4557 75.8164 60.776 75.8164 60C75.8164 59.224 75.707 58.5495 75.4883 57.9766C75.2747 57.4036 74.957 56.9583 74.5352 56.6406C74.1185 56.3229 73.6055 56.1641 72.9961 56.1641C72.3659 56.1641 71.8398 56.3281 71.418 56.6562C70.9961 56.9844 70.6784 57.4375 70.4648 58.0156C70.2513 58.5937 70.1445 59.2552 70.1445 60C70.1445 60.75 70.2513 61.4193 70.4648 62.0078C70.6836 62.5911 71.0039 63.0521 71.4258 63.3906C71.8529 63.724 72.3763 63.8906 72.9961 63.8906ZM81.6113 66V54H84.4395V66H81.6113ZM83.0332 52.2969C82.5853 52.2969 82.1999 52.1484 81.877 51.8516C81.554 51.5495 81.3926 51.1875 81.3926 50.7656C81.3926 50.3385 81.554 49.9766 81.877 49.6797C82.1999 49.3776 82.5853 49.2266 83.0332 49.2266C83.4863 49.2266 83.8717 49.3776 84.1895 49.6797C84.5124 49.9766 84.6738 50.3385 84.6738 50.7656C84.6738 51.1875 84.5124 51.5495 84.1895 51.8516C83.8717 52.1484 83.4863 52.2969 83.0332 52.2969ZM92.582 66.2344C91.4102 66.2344 90.3945 65.9766 89.5352 65.4609C88.6758 64.9453 88.0091 64.224 87.5352 63.2969C87.0664 62.3698 86.832 61.2865 86.832 60.0469C86.832 58.8073 87.0664 57.7214 87.5352 56.7891C88.0091 55.8568 88.6758 55.1328 89.5352 54.6172C90.3945 54.1016 91.4102 53.8438 92.582 53.8438C93.7539 53.8438 94.7695 54.1016 95.6289 54.6172C96.4883 55.1328 97.1523 55.8568 97.6211 56.7891C98.0951 57.7214 98.332 58.8073 98.332 60.0469C98.332 61.2865 98.0951 62.3698 97.6211 63.2969C97.1523 64.224 96.4883 64.9453 95.6289 65.4609C94.7695 65.9766 93.7539 66.2344 92.582 66.2344ZM92.5977 63.9687C93.2331 63.9687 93.7643 63.7943 94.1914 63.4453C94.6185 63.0911 94.9362 62.6172 95.1445 62.0234C95.3581 61.4297 95.4648 60.7682 95.4648 60.0391C95.4648 59.3047 95.3581 58.6406 95.1445 58.0469C94.9362 57.4479 94.6185 56.9714 94.1914 56.6172C93.7643 56.263 93.2331 56.0859 92.5977 56.0859C91.9466 56.0859 91.4049 56.263 90.9727 56.6172C90.5456 56.9714 90.2253 57.4479 90.0117 58.0469C89.8034 58.6406 89.6992 59.3047 89.6992 60.0391C89.6992 60.7682 89.8034 61.4297 90.0117 62.0234C90.2253 62.6172 90.5456 63.0911 90.9727 63.4453C91.4049 63.7943 91.9466 63.9687 92.5977 63.9687ZM103.561 58.9687V66H100.732V54H103.436V56.0391H103.576C103.852 55.3672 104.292 54.8333 104.896 54.4375C105.506 54.0417 106.258 53.8438 107.154 53.8438C107.982 53.8438 108.704 54.0208 109.318 54.375C109.938 54.7292 110.417 55.2422 110.756 55.9141C111.1 56.5859 111.269 57.401 111.264 58.3594V66H108.436V58.7969C108.436 57.9948 108.227 57.3672 107.811 56.9141C107.399 56.4609 106.829 56.2344 106.1 56.2344C105.605 56.2344 105.165 56.3437 104.779 56.5625C104.399 56.776 104.1 57.0859 103.881 57.4922C103.667 57.8984 103.561 58.3906 103.561 58.9687ZM117.592 66.2422C116.831 66.2422 116.146 66.1068 115.537 65.8359C114.933 65.5599 114.454 65.1536 114.1 64.6172C113.751 64.0807 113.576 63.4193 113.576 62.6328C113.576 61.9557 113.701 61.3958 113.951 60.9531C114.201 60.5104 114.542 60.1562 114.975 59.8906C115.407 59.625 115.894 59.4245 116.436 59.2891C116.982 59.1484 117.548 59.0469 118.131 58.9844C118.834 58.9115 119.404 58.8464 119.842 58.7891C120.279 58.7266 120.597 58.6328 120.795 58.5078C120.998 58.3776 121.1 58.1771 121.1 57.9062V57.8594C121.1 57.2708 120.925 56.8151 120.576 56.4922C120.227 56.1693 119.725 56.0078 119.068 56.0078C118.376 56.0078 117.826 56.1589 117.42 56.4609C117.019 56.763 116.748 57.1198 116.607 57.5312L113.967 57.1562C114.175 56.4271 114.519 55.8177 114.998 55.3281C115.477 54.8333 116.063 54.4635 116.756 54.2187C117.449 53.9688 118.214 53.8438 119.053 53.8438C119.631 53.8438 120.206 53.9115 120.779 54.0469C121.352 54.1823 121.876 54.4062 122.35 54.7187C122.824 55.026 123.204 55.4453 123.49 55.9766C123.782 56.5078 123.928 57.1719 123.928 57.9687V66H121.209V64.3516H121.115C120.943 64.6849 120.701 64.9974 120.389 65.2891C120.081 65.5755 119.693 65.8073 119.225 65.9844C118.761 66.1563 118.217 66.2422 117.592 66.2422ZM118.326 64.1641C118.894 64.1641 119.386 64.0521 119.803 63.8281C120.219 63.599 120.54 63.2969 120.764 62.9219C120.993 62.5469 121.107 62.138 121.107 61.6953V60.2812C121.019 60.3542 120.868 60.4219 120.654 60.4844C120.446 60.5469 120.212 60.6016 119.951 60.6484C119.691 60.6953 119.433 60.737 119.178 60.7734C118.923 60.8099 118.701 60.8411 118.514 60.8672C118.092 60.9245 117.714 61.0182 117.381 61.1484C117.048 61.2786 116.785 61.4609 116.592 61.6953C116.399 61.9245 116.303 62.2214 116.303 62.5859C116.303 63.1068 116.493 63.5 116.873 63.7656C117.253 64.0312 117.738 64.1641 118.326 64.1641ZM131.225 66.2109C130.282 66.2109 129.438 65.9688 128.693 65.4844C127.949 65 127.36 64.2969 126.928 63.375C126.495 62.4531 126.279 61.3333 126.279 60.0156C126.279 58.6823 126.498 57.5573 126.936 56.6406C127.378 55.7187 127.975 55.0234 128.725 54.5547C129.475 54.0807 130.311 53.8438 131.232 53.8438C131.936 53.8438 132.514 53.9635 132.967 54.2031C133.42 54.4375 133.779 54.7214 134.045 55.0547C134.311 55.3828 134.516 55.6927 134.662 55.9844H134.779V50H137.615V66H134.834V64.1094H134.662C134.516 64.401 134.305 64.7109 134.029 65.0391C133.753 65.362 133.389 65.638 132.936 65.8672C132.482 66.0964 131.912 66.2109 131.225 66.2109ZM132.014 63.8906C132.613 63.8906 133.123 63.7292 133.545 63.4062C133.967 63.0781 134.287 62.6224 134.506 62.0391C134.725 61.4557 134.834 60.776 134.834 60C134.834 59.224 134.725 58.5495 134.506 57.9766C134.292 57.4036 133.975 56.9583 133.553 56.6406C133.136 56.3229 132.623 56.1641 132.014 56.1641C131.383 56.1641 130.857 56.3281 130.436 56.6562C130.014 56.9844 129.696 57.4375 129.482 58.0156C129.269 58.5937 129.162 59.2552 129.162 60C129.162 60.75 129.269 61.4193 129.482 62.0078C129.701 62.5911 130.021 63.0521 130.443 63.3906C130.87 63.724 131.394 63.8906 132.014 63.8906ZM145.863 66.2344C144.691 66.2344 143.676 65.9766 142.816 65.4609C141.957 64.9453 141.29 64.224 140.816 63.2969C140.348 62.3698 140.113 61.2865 140.113 60.0469C140.113 58.8073 140.348 57.7214 140.816 56.7891C141.29 55.8568 141.957 55.1328 142.816 54.6172C143.676 54.1016 144.691 53.8438 145.863 53.8438C147.035 53.8438 148.051 54.1016 148.91 54.6172C149.77 55.1328 150.434 55.8568 150.902 56.7891C151.376 57.7214 151.613 58.8073 151.613 60.0469C151.613 61.2865 151.376 62.3698 150.902 63.2969C150.434 64.224 149.77 64.9453 148.91 65.4609C148.051 65.9766 147.035 66.2344 145.863 66.2344ZM145.879 63.9687C146.514 63.9687 147.046 63.7943 147.473 63.4453C147.9 63.0911 148.217 62.6172 148.426 62.0234C148.639 61.4297 148.746 60.7682 148.746 60.0391C148.746 59.3047 148.639 58.6406 148.426 58.0469C148.217 57.4479 147.9 56.9714 147.473 56.6172C147.046 56.263 146.514 56.0859 145.879 56.0859C145.228 56.0859 144.686 56.263 144.254 56.6172C143.827 56.9714 143.507 57.4479 143.293 58.0469C143.085 58.6406 142.98 59.3047 142.98 60.0391C142.98 60.7682 143.085 61.4297 143.293 62.0234C143.507 62.6172 143.827 63.0911 144.254 63.4453C144.686 63.7943 145.228 63.9687 145.879 63.9687Z" fill="#F9F50B"/>
<path d="M0.639205 35L4.9858 8.81818H10.5213L6.94176 30.4361H18.1662L17.3991 35H0.639205ZM30.9471 8.81818L26.6005 35H21.065L25.4116 8.81818H30.9471ZM35.5014 8.81818H42.3281L46.6364 26.4091H46.9432L57.0554 8.81818H63.8821L59.5355 35H54.1662L57.0043 17.9588H56.7741L47.2116 34.8722H43.5426L39.6051 17.8949H39.3878L36.5241 35H31.1548L35.5014 8.81818ZM64.0962 35L68.4428 8.81818H78.7724C80.7496 8.81818 82.3732 9.19744 83.6431 9.95597C84.9215 10.706 85.8164 11.75 86.3278 13.0881C86.8477 14.4176 86.967 15.9517 86.6857 17.6903C86.396 19.4375 85.7653 20.9759 84.7937 22.3054C83.8306 23.6264 82.5778 24.6577 81.0352 25.3991C79.4925 26.1406 77.7113 26.5114 75.6914 26.5114H69.1076L69.8363 22.0753H75.5252C76.5991 22.0753 77.5153 21.892 78.2738 21.5256C79.0408 21.1506 79.6502 20.6349 80.1019 19.9787C80.5536 19.3139 80.8477 18.5511 80.984 17.6903C81.1289 16.8125 81.082 16.0497 80.8434 15.402C80.6048 14.7543 80.1658 14.2514 79.5266 13.8935C78.896 13.527 78.0479 13.3438 76.9826 13.3438H73.2496L69.6317 35H64.0962ZM101.4 19.7486L100.697 24.0696L88.744 24.0696L89.4471 19.7486L101.4 19.7486ZM108.125 35H102.193L115.578 8.81818H122.711L127.39 35H121.458L118.275 14.8011H118.071L108.125 35ZM109.48 24.7088H123.491L122.75 29.0298H108.738L109.48 24.7088ZM130.542 35L134.888 8.81818L145.218 8.81818C147.195 8.81818 148.823 9.16761 150.101 9.86648C151.388 10.5653 152.292 11.5582 152.811 12.8452C153.34 14.1236 153.463 15.6321 153.182 17.3707C152.892 19.1094 152.266 20.6009 151.303 21.8452C150.348 23.0895 149.104 24.0483 147.57 24.7216C146.044 25.3864 144.276 25.7188 142.265 25.7188H135.348L136.115 21.2699H142.124C143.181 21.2699 144.084 21.125 144.834 20.8352C145.584 20.5455 146.176 20.1108 146.611 19.5313C147.054 18.9517 147.344 18.2315 147.48 17.3707C147.625 16.4929 147.574 15.7599 147.327 15.1719C147.08 14.5753 146.632 14.1236 145.985 13.8168C145.337 13.5014 144.485 13.3438 143.428 13.3438H139.695L136.077 35H130.542ZM146.65 23.0852L151.188 35H145.077L140.679 23.0852H146.65Z" fill="#F9F50B"/>
<path d="M0 42.1591L153.745 42.1591V44.6136L0 44.6136L0 42.1591Z" fill="#F9F50B"/>
</svg>
